<?xml version="1.0" ?>
<svg height="19px" version="1.1" viewBox="0 0 20 19" width="20px" xmlns="http://www.w3.org/2000/svg"
     xmlns:xlink="http://www.w3.org/1999/xlink">
    <title/>
    <g fill="none" fill-rule="evenodd" id="Icons" stroke="none" stroke-linecap="round" stroke-linejoin="round"
       stroke-width="1">
        <g id="Group" stroke="#000000" stroke-width="2" transform="translate(-2.000000, -2.000000)">
            <g id="Shape" transform="translate(3.000000, 3.314575)">
                <path d="M0.571428571,6.68542457 L4,6.68542457 L4,16.6854246 L0.571428571,16.6854246 C0.255837286,16.6854246 0,16.3410282 0,15.9161938 L0,7.45465534 C0,7.02982092 0.255837286,6.68542457 0.571428571,6.68542457 Z"/>
                <path d="M4,7.43542457 L7.29966809,1.04231764 C7.78713518,0.0977581736 8.94803678,-0.272742337 9.8925769,0.214762241 C10.0690433,0.305841656 10.2303505,0.423683717 10.370771,0.564104226 C10.370771,0.564104226 10.370771,0.564104226 10.370771,0.564104226 C10.9333801,1.12671336 11.2494506,1.8897751 11.2494506,2.68542457 L11.2494506,5.68542457 L16.500278,5.68542457 C16.9305244,5.68542457 17.3400569,5.87017416 17.624795,6.19272057 C17.9095331,6.51526698 18.0420596,6.94455262 17.988694,7.37147657 L16.863694,15.3714776 C16.7698634,16.1221204 16.1317626,16.6854246 15.375278,16.6854246 L4,16.6854246"/>
            </g>
        </g>
    </g>
</svg>
